HIERARCHY
ROOT SimulationBone
{
	OFFSET 0.000000 0.000000 0.000000
	CHANNELS 6 Xposition Yposition Zposition Zrotation Yrotation Xrotation 
	JOINT Hips
	{
		OFFSET 0.000000 0.000000 0.000000
		CHANNELS 6 Xposition Yposition Zposition Zrotation Yrotation Xrotation 
		JOINT LeftUpLeg
		{
			OFFSET 0.103458 1.857820 10.548502
			CHANNELS 3 Zrotation Yrotation Xrotation
			JOINT LeftLeg
			{
				OFFSET 43.500000 -0.000023 -0.000011
				CHANNELS 3 Zrotation Yrotation Xrotation
				JOINT LeftFoot
				{
					OFFSET 42.372192 0.000038 0.000002
					CHANNELS 3 Zrotation Yrotation Xrotation
					JOINT LeftToe
					{
						OFFSET 17.299992 -0.000004 0.000006
						CHANNELS 3 Zrotation Yrotation Xrotation
						End Site
						{
							OFFSET 0.000000 0.000000 0.000000
						}
					}
				}
			}
		}
		JOINT RightUpLeg
		{
			OFFSET 0.103461 1.857814 -10.548508
			CHANNELS 3 Zrotation Yrotation Xrotation
			JOINT RightLeg
			{
				OFFSET 43.500042 -0.000015 0.000008
				CHANNELS 3 Zrotation Yrotation Xrotation
				JOINT RightFoot
				{
					OFFSET 42.372253 0.000008 0.000006
					CHANNELS 3 Zrotation Yrotation Xrotation
					JOINT RightToe
					{
						OFFSET 17.299973 -0.000014 0.000011
						CHANNELS 3 Zrotation Yrotation Xrotation
						End Site
						{
							OFFSET 0.000000 0.000000 0.000000
						}
					}
				}
			}
		}
		JOINT Spine
		{
			OFFSET 6.901966 -2.603737 -0.000007
			CHANNELS 3 Zrotation Yrotation Xrotation
			JOINT Spine1
			{
				OFFSET 12.588102 0.000017 0.000001
				CHANNELS 3 Zrotation Yrotation Xrotation
				JOINT Spine2
				{
					OFFSET 12.343197 -0.000013 0.000000
					CHANNELS 3 Zrotation Yrotation Xrotation
					JOINT Neck
					{
						OFFSET 25.832905 -0.000008 0.000000
						CHANNELS 3 Zrotation Yrotation Xrotation
						JOINT Head
						{
							OFFSET 11.766610 0.000009 -0.000002
							CHANNELS 3 Zrotation Yrotation Xrotation
							End Site
							{
								OFFSET 0.000000 0.000000 0.000000
							}
						}
					}
					JOINT LeftShoulder
					{
						OFFSET 19.745903 -1.480377 6.000115
						CHANNELS 3 Zrotation Yrotation Xrotation
						JOINT LeftArm
						{
							OFFSET 11.284125 -0.000014 -0.000024
							CHANNELS 3 Zrotation Yrotation Xrotation
							JOINT LeftForeArm
							{
								OFFSET 33.000046 -0.000012 0.000029
								CHANNELS 3 Zrotation Yrotation Xrotation
								JOINT LeftHand
								{
									OFFSET 25.199989 0.000034 0.000012
									CHANNELS 3 Zrotation Yrotation Xrotation
									End Site
									{
										OFFSET 0.000000 0.000000 0.000000
									}
								}
							}
						}
					}
					JOINT RightShoulder
					{
						OFFSET 19.746098 -1.480362 -6.000071
						CHANNELS 3 Zrotation Yrotation Xrotation
						JOINT RightArm
						{
							OFFSET 11.284137 -0.000006 -0.000008
							CHANNELS 3 Zrotation Yrotation Xrotation
							JOINT RightForeArm
							{
								OFFSET 33.000095 0.000017 0.000000
								CHANNELS 3 Zrotation Yrotation Xrotation
								JOINT RightHand
								{
									OFFSET 25.199778 0.000144 0.000423
									CHANNELS 3 Zrotation Yrotation Xrotation
									End Site
									{
										OFFSET 0.000000 0.000000 0.000000
									}
								}
							}
						}
					}
				}
			}
		}
	}
}
MOTION
Frames: 7
Frame Time: 0.016667
-56.769926 0.000000 155.092738 0.000000 -81.702648 0.000000 3.639918 85.197487 -0.714070 101.114438 -0.622433 -178.260894 -167.224368 1.755599 178.494003 -77.224269 0.459955 -8.630791 65.928099 2.529406 -9.782871 21.454551 0.003095 0.000001 158.472874 -0.661707 178.816866 -35.768853 5.926903 8.339033 72.554244 -7.129675 -3.376257 21.454560 -0.003110 -0.000017 8.241696 0.569813 -2.080663 6.448365 1.254198 -4.126659 6.131080 1.229397 -4.134127 3.090629 -0.582752 -4.554432 -3.827511 2.778129 -5.378569 -172.342214 -75.138811 -9.313719 1.398043 55.153154 29.008567 -93.598254 -2.946311 2.670979 -5.895992 0.617229 36.684286 -146.713978 66.657295 35.790230 22.940719 -42.840298 -45.887139 -77.972797 10.168070 -2.528178 -9.902589 7.625713 -19.596369 
-55.962621 0.000000 158.748139 0.000000 -81.874426 0.000000 3.921957 83.705064 -0.499393 102.472434 0.249984 -178.867050 -168.872792 0.532247 176.737157 -83.146028 1.534770 -8.949891 66.894243 3.206580 -8.731687 21.454554 0.003095 0.000005 158.000942 -2.104409 179.490391 -44.138097 5.253785 7.821662 77.388472 -6.672971 -3.838935 21.454560 -0.003107 -0.000018 8.727138 0.814603 -1.712653 7.416755 1.736985 -3.370059 7.099101 1.716740 -3.380453 1.973676 -0.593021 -4.649047 -3.587970 2.496169 -5.398021 -171.583846 -74.506394 -10.087424 1.181565 55.470332 28.009683 -90.368657 -4.366575 2.643745 -5.120765 0.463171 39.845802 -149.363430 65.985944 33.071124 17.773261 -43.318952 -41.974694 -77.007446 10.842884 -2.536499 -10.058000 8.608744 -18.865305 
-55.144341 0.000000 162.368782 0.000000 -82.059052 0.000000 4.147572 82.306480 -0.292287 103.562947 1.135609 -179.531467 -171.103028 -0.701991 175.074073 -88.504900 2.565727 -9.179457 68.152228 3.979808 -7.149112 21.454558 0.003094 0.000004 157.927006 -3.390398 179.850356 -51.557597 4.565577 7.311502 83.934459 -5.587442 -2.018018 21.454560 -0.003106 -0.000018 9.177210 1.066034 -1.349294 8.317664 2.226078 -2.619000 7.999668 2.210360 -2.632369 0.713126 -0.576876 -4.669059 -2.967263 2.123370 -5.306968 -170.457519 -73.558709 -11.239313 1.271964 55.676381 27.359710 -87.436570 -6.064227 2.615830 -4.915489 0.151216 43.188433 -152.182993 65.228011 30.170731 11.717136 -43.281668 -37.631275 -76.012081 11.702499 -2.550925 -10.418694 9.131559 -19.617581 
-54.308065 0.000000 165.966051 0.000000 -82.261793 0.000000 4.167772 81.296933 -0.162464 104.189993 1.928663 -179.942118 -174.230044 -1.528980 174.494553 -92.919112 3.150256 -9.611539 69.339614 4.681390 -6.104422 21.454559 0.003090 -0.000005 158.839502 -3.991395 -179.733598 -56.126972 4.573668 6.766289 88.554451 -4.953859 -1.429019 21.454558 -0.003109 -0.000018 9.525604 1.282291 -1.074461 9.017099 2.644234 -2.046247 8.698841 2.631967 -2.062172 -0.184757 -0.454944 -4.581639 -2.532723 1.881489 -5.128211 -168.876749 -72.501052 -12.861539 2.509177 55.646139 27.298390 -85.425947 -7.357137 2.609591 -4.923006 -0.139952 45.813155 -154.961738 64.907943 27.293751 5.586117 -43.289978 -33.215266 -75.440110 12.496360 -2.578904 -10.727409 8.654601 -22.188036 
-53.448670 0.000000 169.552803 0.000000 -82.484325 0.000000 4.082722 80.623108 -0.085989 104.471796 2.509679 179.892844 -177.952888 -1.901305 174.709764 -96.227659 3.390262 -10.044936 70.294072 5.217945 -5.521488 21.454557 0.003087 -0.000011 160.463588 -3.985108 -178.918608 -58.729046 4.656284 6.021021 91.794695 -4.424390 -1.719930 21.454557 -0.003112 -0.000017 9.754187 1.447492 -0.865041 9.477878 2.960825 -1.609085 9.159432 2.951190 -1.626945 -0.267872 -0.362173 -4.485944 -2.501077 1.813195 -4.998850 -167.030281 -71.563120 -14.762317 5.075670 55.424743 28.132377 -84.488701 -7.856021 2.611457 -5.130252 -0.791303 45.877645 -157.577968 65.038480 24.572569 0.148970 -43.306100 -29.075503 -75.691957 12.778898 -2.612371 -11.072625 7.821930 -25.093927 
-52.571439 0.000000 173.140023 0.000000 -82.716101 0.000000 4.016282 80.178564 -0.029997 104.563596 2.816270 179.839586 178.146530 -1.938898 175.133480 -98.312437 3.505477 -10.279869 70.943587 5.535935 -5.115936 21.454551 0.003089 -0.000006 162.403588 -3.630300 -177.606679 -60.556511 4.145679 5.068903 94.895105 -3.705259 -1.766022 21.454557 -0.003111 -0.000017 9.864262 1.554723 -0.660125 9.702934 3.159173 -1.187936 9.384371 3.152074 -1.206996 0.691488 -0.421736 -4.492883 -2.850074 1.897541 -5.047939 -165.017484 -70.948288 -16.838100 8.797109 55.061217 30.038045 -84.586269 -7.400729 2.586322 -5.496052 -2.121673 42.198972 -159.831159 65.495697 22.223567 -3.982051 -43.264548 -25.568105 -77.002490 12.218508 -2.633192 -11.602372 7.365221 -26.744938 
-51.685360 0.000000 176.736785 0.000000 -82.937516 0.000000 3.924344 79.992882 0.019926 104.472537 2.996258 179.596416 174.224670 -1.933593 175.307501 -99.031964 3.549121 -10.449654 71.342404 5.737807 -4.909417 21.454548 0.003093 -0.000000 164.621288 -3.230191 -176.714479 -61.479092 3.630182 4.171240 97.656917 -3.004552 -1.629810 21.454558 -0.003108 -0.000017 9.885253 1.610095 -0.355380 9.753419 3.244282 -0.573962 9.434785 3.240885 -0.593542 2.079715 -0.482386 -4.637369 -2.952641 2.036481 -5.244614 -162.716005 -70.711101 -19.211479 12.809581 54.596046 32.687942 -85.394924 -6.472217 2.554471 -5.735034 -3.542909 37.175155 -161.353997 66.084611 20.633796 -7.107843 -43.224407 -22.743945 -79.008322 11.136950 -2.640698 -11.979854 7.188588 -26.861449 
